<svg xmlns="http://www.w3.org/2000/svg" width="133" height="40" viewBox="0 0 133 40" fill="none"><mask id="mask0_1_90" style="mask-type:luminance" maskUnits="userSpaceOnUse" x="0" y="0" width="133" height="40"><path d="M132.481 0H0V40H132.481V0Z" fill="white"></path></mask><g mask="url(#mask0_1_90)"><path d="M0 40H40V0H0V40ZM22.6193 30.4763H11.1903C11.0641 30.4762 10.943 30.426 10.8537 30.3367C10.7645 30.2474 10.7143 30.1263 10.7143 30V21.4287C10.7144 21.3025 10.7646 21.1814 10.8538 21.0922C10.9431 21.0029 11.0641 20.9528 11.1903 20.9527H22.6193C23.248 20.9474 23.8715 21.0667 24.4539 21.3036C25.0362 21.5406 25.5659 21.8905 26.0123 22.3332C26.4587 22.7759 26.8131 23.3026 27.0549 23.883C27.2967 24.4633 27.4212 25.0858 27.4212 25.7145C27.4212 26.3432 27.2967 26.9657 27.0549 27.546C26.8131 28.1264 26.4587 28.6531 26.0123 29.0958C25.5659 29.5385 25.0362 29.8884 24.4539 30.1254C23.8715 30.3623 23.248 30.4816 22.6193 30.4763ZM29.286 18.5713C29.2859 18.6975 29.2357 18.8186 29.1465 18.9078C29.0572 18.9971 28.9362 19.0472 28.81 19.0473H17.3807C16.1247 19.0368 14.9237 18.5305 14.0392 17.6386C13.1548 16.7468 12.6585 15.5416 12.6585 14.2855C12.6585 13.0294 13.1548 11.8242 14.0392 10.9324C14.9237 10.0405 16.1247 9.53418 17.3807 9.52367H28.8097C28.9359 9.52376 29.057 9.57398 29.1463 9.6633C29.2355 9.75262 29.2857 9.87373 29.2857 10L29.286 18.5713Z" fill="#FFD106"></path><path d="M124.441 4.76245H127.036L132.481 17.5245H129.546L128.355 14.6741H123.037L121.846 17.5245H118.996L124.441 4.76245ZM127.419 12.2495L125.717 8.12312L124.017 12.2495H127.419Z" fill="#FFD106"></path><path d="M113.763 7.31478H109.892V4.76245H120.442V7.31478H116.571V17.5241H113.763V7.31478Z" fill="#FFD106"></path><path d="M96.79 4.76208H99.3847L105.298 12.6318V4.76208H108.105V17.5241H105.681L99.5977 9.44175V17.5241H96.79V4.76208Z" fill="#FFD106"></path><path d="M86.9637 4.76245H89.5584L95.0037 17.5245H92.0684L90.8774 14.6741H85.5597L84.3684 17.5245H81.519L86.9637 4.76245ZM89.9414 12.2495L88.2397 8.12312L86.5397 12.2495H89.9414Z" fill="#FFD106"></path><path d="M76.2864 7.31478H72.415V4.76245H82.9647V7.31478H79.0937V17.5241H76.286L76.2864 7.31478Z" fill="#FFD106"></path><path d="M60.8442 4.76208H70.6286V7.31442H63.6529V9.86708H69.2249V12.4194H63.6519V14.9718H70.6286V17.5244H60.8442V4.76208Z" fill="#FFD106"></path><path d="M52.5066 8.29312C52.5126 8.1528 52.547 8.01515 52.6078 7.88856C52.6686 7.76197 52.7546 7.64907 52.8604 7.55674C52.9662 7.46441 53.0897 7.39458 53.2234 7.35149C53.3571 7.30841 53.4981 7.29297 53.638 7.30612H58.5046V4.76245L53.1873 4.80512C52.7206 4.79611 52.2568 4.87926 51.8224 5.0498C51.3879 5.22034 50.9914 5.47493 50.6555 5.79897C50.3196 6.12301 50.0509 6.51015 49.8648 6.93819C49.6788 7.36624 49.5791 7.82679 49.5713 8.29345C49.5788 9.09952 49.8548 9.8801 50.3555 10.5118C50.8563 11.1436 51.5532 11.5904 52.3363 11.7818L55.228 12.4625C55.515 12.533 55.7708 12.6964 55.9556 12.9272C56.1404 13.1579 56.2438 13.4432 56.25 13.7388C56.2321 14.0825 56.0789 14.4052 55.8238 14.6363C55.5687 14.8675 55.2325 14.9882 54.8886 14.9721H49.997V17.5248H55.3566C56.3588 17.5184 57.3182 17.1174 58.0269 16.4087C58.7356 15.7 59.1366 14.7407 59.143 13.7385C59.1213 12.885 58.8172 12.0628 58.2784 11.4005C57.7396 10.7383 56.9965 10.2733 56.1653 10.0785L53.3576 9.35512C53.1169 9.29918 52.902 9.16383 52.7477 8.97086C52.5933 8.7779 52.5084 8.53857 52.5066 8.29145" fill="#FFD106"></path><path d="M50.9647 25.4398C50.9635 25.2001 51.0098 24.9624 51.101 24.7407C51.1922 24.519 51.3264 24.3175 51.4959 24.148C51.6655 23.9785 51.8669 23.8442 52.0887 23.753C52.3104 23.6619 52.548 23.6156 52.7877 23.6168H58.3837V22.2601H52.7464C51.8925 22.2622 51.0742 22.6024 50.4704 23.2062C49.8667 23.81 49.5265 24.6283 49.5244 25.4821C49.5252 26.1997 49.7686 26.896 50.215 27.4578C50.6614 28.0197 51.2846 28.4141 51.9834 28.5771L56.0101 29.5535C56.5017 29.68 56.9304 29.9812 57.2161 30.4008C57.5019 30.8204 57.6251 31.3297 57.5627 31.8335C57.5004 32.3373 57.2567 32.8011 56.8773 33.1384C56.4979 33.4757 56.0087 33.6632 55.5011 33.6661H49.9464V34.9805H55.5427C56.3875 34.9894 57.2059 34.6872 57.8422 34.1314C58.4784 33.5757 58.888 32.8053 58.9927 31.9671C59.0975 31.1288 58.8902 30.2813 58.4104 29.5861C57.9305 28.8909 57.2117 28.3965 56.3907 28.1971L52.3637 27.2201C51.9639 27.1244 51.6082 26.8965 51.3541 26.5733C51.1 26.2501 50.9624 25.8506 50.9637 25.4395" fill="#FFD106"></path><path d="M109.175 25.4398C109.174 25.2 109.22 24.9623 109.311 24.7404C109.402 24.5186 109.537 24.3171 109.706 24.1475C109.876 23.978 110.078 23.8437 110.299 23.7526C110.521 23.6614 110.759 23.6151 110.999 23.6165H116.595V22.2601H110.955C110.102 22.2622 109.283 22.6024 108.679 23.2062C108.076 23.81 107.736 24.6283 107.733 25.4821C107.734 26.1997 107.978 26.896 108.424 27.4578C108.87 28.0197 109.494 28.4141 110.192 28.5771L114.22 29.5535C114.712 29.68 115.141 29.9812 115.426 30.4008C115.712 30.8204 115.835 31.3297 115.773 31.8335C115.711 32.3373 115.467 32.8011 115.088 33.1384C114.708 33.4757 114.219 33.6632 113.711 33.6661H108.157V34.9805H113.754C114.598 34.9894 115.417 34.6872 116.053 34.1314C116.689 33.5757 117.099 32.8053 117.204 31.9671C117.309 31.1288 117.101 30.2813 116.621 29.5861C116.142 28.8909 115.423 28.3965 114.602 28.1971L110.574 27.2201C110.174 27.1244 109.818 26.8965 109.564 26.5733C109.31 26.2501 109.173 25.8506 109.174 25.4395" fill="#FFD106"></path><path d="M70.2983 26.3725C70.2983 29.1158 68.0336 30.4848 65.3259 30.4848H62.2429V34.9791H60.8013V22.2601H65.5496C68.3953 22.2601 70.2669 23.8991 70.2983 26.3725ZM68.8563 26.3725C68.8563 24.5555 67.6026 23.6168 65.5493 23.6168H62.2423V29.1705H65.4643C67.5723 29.1705 68.8563 28.0438 68.8563 26.3725Z" fill="#FFD106"></path><path d="M84.0776 28.6189C84.0776 32.1229 81.5423 35.1903 77.676 35.1903C73.8096 35.1903 71.189 32.1236 71.189 28.6189C71.189 25.1143 73.809 22.0476 77.676 22.0476C81.543 22.0476 84.0776 25.1143 84.0776 28.6189ZM82.636 28.6189C82.636 25.7333 80.5806 23.4043 77.6756 23.4043C74.7706 23.4043 72.6303 25.7333 72.6303 28.6189C72.6303 31.5046 74.771 33.8336 77.6756 33.8336C80.5803 33.8336 82.636 31.5053 82.636 28.6189Z" fill="#FFD106"></path><path d="M95.9054 26.0754C95.9054 28.1841 94.4721 29.4421 92.4721 29.8061L96.3721 34.9788H94.6338L90.9028 30.0184H87.2991V34.9791H85.8574V22.2598H91.3264C92.8901 22.2598 94.1301 22.7318 94.9301 23.5318C95.5764 24.2188 95.9267 25.1324 95.9054 26.0754ZM94.4638 26.0754C94.4638 24.5118 93.2538 23.6164 91.1994 23.6164H87.2994V28.6618H91.1994C93.1088 28.6618 94.4638 27.7121 94.4638 26.0754Z" fill="#FFD106"></path><path d="M101.12 23.6164H96.7954V22.2598H106.843V23.6164H102.561V34.9788H101.12V23.6164Z" fill="#FFD106"></path></g></svg>